HIERARCHY
ROOT hip
{
	OFFSET 0.000000 0.000000 0.000000 
	CHANNELS 6 Xposition Yposition Zposition Xrotation Zrotation Yrotation
	JOINT abdomen
	{
		OFFSET 0.000000 3.402643 0.000000 
		CHANNELS 3 Xrotation Zrotation Yrotation
		JOINT chest
		{
			OFFSET 0.000000 8.438565 -0.680529 
			CHANNELS 3 Xrotation Zrotation Yrotation
			JOINT neck
			{
				OFFSET 0.000000 10.207942 -0.272212 
				CHANNELS 3 Xrotation Zrotation Yrotation
				JOINT head
				{
					OFFSET 0.000000 3.130431 0.000000 
					CHANNELS 3 Xrotation Zrotation Yrotation
					End Site
					{
						OFFSET 0.000000 3.130435 0.000000 
					}
				}
			}
			JOINT lCollar
			{
				OFFSET 3.470700 6.669187 -0.816635 
				CHANNELS 3 Yrotation Zrotation Xrotation
				JOINT lShldr
				{
					OFFSET 3.198488 0.000000 0.000000 
					CHANNELS 3 Zrotation Yrotation Xrotation
					JOINT lForeArm
					{
						OFFSET 10.139888 0.000000 0.000000 
						CHANNELS 3 Yrotation Zrotation Xrotation
						JOINT lHand
						{
							OFFSET 8.370511 0.000000 0.000000 
							CHANNELS 3 Zrotation Yrotation Xrotation
							End Site
							{
								OFFSET 4.083176 0.000000 0.000000 
							}
						}
					}
				}
			}
			JOINT rCollar
			{
				OFFSET -3.470700 6.669187 -0.816635 
				CHANNELS 3 Yrotation Zrotation Xrotation
				JOINT rShldr
				{
					OFFSET -3.198488 0.000000 0.000000 
					CHANNELS 3 Zrotation Yrotation Xrotation
					JOINT rForeArm
					{
						OFFSET -10.139888 0.000000 0.000000 
						CHANNELS 3 Yrotation Zrotation Xrotation
						JOINT rHand
						{
							OFFSET -8.370511 0.000000 0.000000 
							CHANNELS 3 Zrotation Yrotation Xrotation
							End Site
							{
								OFFSET -4.083176 0.000000 0.000000 
							}
						}
					}
				}
			}
		}
	}
	JOINT lThigh
	{
		OFFSET 5.308129 -1.633274 1.361059 
		CHANNELS 3 Xrotation Zrotation Yrotation
		JOINT lShin
		{
			OFFSET -2.041588 -20.007561 0.000000 
			CHANNELS 3 Xrotation Zrotation Yrotation
			JOINT lFoot
			{
				OFFSET 0.000000 -19.190928 -1.224953 
				CHANNELS 3 Xrotation Yrotation Zrotation
				End Site
				{
					OFFSET 0.000000 -2.449906 4.627600 
				}
			}
		}
	}
	JOINT rThigh
	{
		OFFSET -5.308129 -1.633274 1.361059 
		CHANNELS 3 Xrotation Zrotation Yrotation
		JOINT rShin
		{
			OFFSET 2.041588 -20.007561 0.000000 
			CHANNELS 3 Xrotation Zrotation Yrotation
			JOINT rFoot
			{
				OFFSET 0.000000 -19.190928 -1.224953 
				CHANNELS 3 Xrotation Yrotation Zrotation
				End Site
				{
					OFFSET 0.000000 -2.449906 4.627600 
				}
			}
		}
	}
}
MOTION
Frames: 11
Frame Time: 0.011111
-0.657997 69.170868 -2.026016 2.578946 1.448773 0.173005 29.417376 0.984810 0.320671 -24.884705 -0.118564 -0.125318 -21.285530 -4.282914 1.917887 1.732893 8.351339 1.750258 2.424333 -4.683778 1.783845 -22.923002 -33.637642 -19.855234 -85.721909 1.968326 27.746885 8.524705 12.647240 -29.827528 -2.738486 -1.140572 2.095526 29.833406 27.638788 -14.483481 84.185783 -3.748784 25.613565 -8.534408 -12.637552 31.331888 -2.664399 7.463760 6.743356 22.676882 -5.687049 -3.895759 16.831051 20.647255 -8.218224 -4.206201 -7.720518 7.988462 26.005600 5.527096 4.308488 9.803257 -23.037455 6.981035 
-0.722352 69.735039 -2.089470 2.354365 1.545409 0.210380 29.806566 0.710497 0.218146 -24.992142 -0.108114 -0.116345 -20.867781 -4.037806 1.764374 1.638815 8.338956 1.598832 2.424333 -4.683778 1.783845 -24.923229 -33.177860 -20.722109 -85.581352 2.173245 27.455919 8.524705 12.647240 -29.876354 -2.738486 -1.140572 2.095526 30.950115 26.829128 -15.722844 83.483627 -4.351378 24.957745 -8.534408 -12.637552 30.892437 -2.899761 7.428806 6.978700 23.903166 -5.639397 -4.035664 18.218552 18.829334 -7.865061 -4.673209 -7.630995 7.907512 27.664860 5.434508 4.543643 10.792608 -20.650230 6.673754 
-0.777386 70.262817 -2.134880 2.188326 1.583927 0.236674 30.089729 0.537874 0.196496 -25.031067 -0.194672 -0.097793 -20.582827 -3.972716 1.686754 1.785295 8.583260 1.542523 2.424333 -4.683778 1.783845 -26.800879 -32.880932 -21.597115 -85.370087 2.458970 27.068626 8.524705 12.647240 -29.905651 -2.738486 -1.140572 2.095526 32.103462 26.165369 -16.984610 82.630989 -4.987566 24.274544 -8.534408 -12.637552 30.706892 -3.066382 7.450824 7.206299 24.792313 -5.600736 -4.156623 19.540087 17.161371 -7.482219 -5.077662 -7.528922 7.944043 29.037167 5.365421 4.718435 11.572087 -18.300571 6.240103 
-0.819188 70.764435 -2.160441 2.041951 1.741373 0.218695 30.295038 0.271351 0.168414 -25.070047 -0.251075 -0.072347 -20.457214 -4.011445 1.666031 2.249953 8.958149 1.541297 2.424333 -4.683778 1.783845 -28.638779 -32.503635 -22.238430 -85.103043 2.791351 26.665831 8.524705 12.647240 -29.602915 -2.738486 -1.140572 2.095526 33.185272 25.548933 -18.151299 81.647644 -5.612454 23.555573 -8.534408 -12.637552 30.618998 -3.084601 7.328964 7.270055 25.357990 -5.571352 -4.230725 20.211287 16.052366 -7.145650 -5.405358 -7.592301 8.029145 30.057245 5.312135 4.834859 12.324410 -16.308027 5.894581 
-0.847155 71.244400 -2.173072 1.954271 1.973948 0.282607 30.431265 0.002727 0.001848 -25.050488 -0.271461 -0.080196 -20.503452 -3.858691 1.572929 2.856832 8.963517 1.466198 2.424333 -4.683778 1.783845 -30.465734 -32.134132 -22.772274 -84.772552 3.163862 26.236649 8.524705 12.647240 -29.085339 -2.738486 -1.140572 2.095526 34.194279 25.165529 -19.334536 80.485748 -6.250848 22.784058 -8.534408 -12.637552 30.296732 -2.958055 7.067466 7.022960 25.549978 -5.556921 -4.274422 20.513147 15.292670 -6.889800 -5.632367 -7.819715 8.064241 30.705704 5.277245 4.932822 12.761674 -14.768274 5.559999 
-0.863696 71.694595 -2.163750 1.837266 2.196825 0.354123 30.518604 -0.204571 -0.205750 -24.933252 -0.303324 -0.107036 -20.891548 -3.676864 1.504996 3.825822 8.848020 1.448337 2.424333 -4.683778 1.783845 -32.141708 -31.859684 -23.271006 -84.321739 3.618381 25.736027 8.524705 12.647240 -28.274790 -2.738486 -1.140572 2.095526 35.121185 25.025024 -20.520742 79.143478 -6.874346 21.960024 -8.534408 -12.637552 30.179546 -2.653706 6.759499 6.525698 25.418476 -5.565954 -4.254218 20.459414 14.764879 -6.679345 -5.649815 -8.012712 8.220284 31.054459 5.258508 4.987620 12.706017 -13.586487 5.248624 
-0.873018 72.116516 -2.132474 1.769078 2.389452 0.455165 30.430189 -0.341498 -0.398923 -24.737879 -0.345540 -0.143261 -20.862383 -3.672146 1.489637 4.318476 8.871685 1.460116 2.424333 -4.683778 1.783845 -33.747391 -31.573595 -23.552061 -83.781052 4.100990 25.206425 8.524705 12.647240 -27.083385 -2.738486 -1.140572 2.095526 35.988171 24.883558 -21.689667 77.690666 -7.444965 21.118916 -8.534408 -12.637552 30.238138 -2.343547 6.492212 5.911114 25.076080 -5.579827 -4.206930 20.149797 14.274529 -6.444326 -5.592617 -8.189919 8.445341 31.105610 5.247844 4.990015 12.258744 -12.641311 4.969187 
-0.891061 72.494835 -2.100597 1.739873 2.486111 0.495964 30.283957 -0.430310 -0.463969 -24.542473 -0.414015 -0.147929 -20.706469 -3.710237 1.497817 4.567129 9.033818 1.489987 2.424333 -4.683778 1.783845 -35.173275 -31.256195 -23.603678 -83.132065 4.618508 24.653778 8.524705 12.647240 -25.706432 -2.738486 -1.140572 2.095526 36.914341 24.800409 -22.934319 76.155579 -7.940759 20.257751 -8.534408 -12.637552 30.130716 -2.079780 6.365921 5.429930 24.662464 -5.595891 -4.163664 19.627281 13.857277 -6.196035 -5.485234 -8.267943 8.661639 30.944374 5.267850 4.970728 11.394317 -11.825265 4.675904 
-0.910910 72.841576 -2.068719 1.778944 2.466251 0.497050 30.079189 -0.401614 -0.386276 -24.386152 -0.471110 -0.134145 -20.772848 -3.918527 1.500086 5.150444 9.334033 1.467354 2.424333 -4.683778 1.783845 -36.548592 -30.976578 -23.402731 -82.365303 5.156792 24.058727 8.524705 12.647240 -24.388073 -2.738486 -1.140572 2.095526 37.720921 24.725899 -24.099794 74.530014 -8.375909 19.393314 -8.534408 -12.637552 30.111183 -1.922979 6.362509 4.935894 24.198071 -5.618620 -4.077361 18.867752 13.486256 -6.000499 -5.377419 -8.228708 8.869202 30.626434 5.276964 4.925789 10.004586 -11.291875 4.414330 
-0.927450 73.152832 -2.031128 1.945129 2.491763 0.573508 29.707672 -0.399235 -0.439930 -24.298220 -0.501788 -0.151777 -20.797140 -4.029881 1.481820 5.692587 9.470077 1.428494 2.424333 -4.683778 1.783845 -37.834007 -30.559021 -23.087132 -81.479942 5.709227 23.437721 8.524705 12.647240 -23.157606 -2.738486 -1.140572 2.095526 38.478630 24.426111 -24.745544 73.001640 -8.707345 18.602060 -8.534408 -12.637552 30.511580 -1.913346 6.285259 4.223902 23.802891 -5.638823 -4.026764 17.698631 13.038699 -5.705856 -5.377923 -8.248775 9.075650 30.257742 5.296799 4.858963 8.502239 -11.221581 4.249754 
-0.936772 73.423187 -1.986620 2.169959 2.524468 0.692096 29.247400 -0.327345 -0.532593 -24.229801 -0.552768 -0.177376 -20.780466 -4.104753 1.476649 6.066794 9.518200 1.412617 2.424333 -4.683778 1.783845 -38.999146 -30.169718 -22.818985 -80.447426 6.267033 22.749386 8.524705 12.647240 -22.513075 -2.738486 -1.140572 2.095526 39.196220 24.106239 -25.240629 71.473671 -8.967169 17.822514 -8.534408 -12.637552 30.892437 -1.971565 6.176881 3.481922 23.397497 -5.657496 -3.973870 16.484718 12.524611 -5.410785 -5.378212 -8.307675 9.212867 29.788322 5.316359 4.822082 6.988685 -11.418311 4.103650 
